<svg xmlns="http://www.w3.org/2000/svg" viewBox="0 0 800 600">
  <!-- Existing List -->
  <g transform="translate(50,50)">
    <rect x="0" y="0" width="120" height="60" fill="lightblue" stroke="black" />
    <text x="60" y="35" text-anchor="middle">Node 1</text>
    <text x="60" y="55" text-anchor="middle" font-size="12">Data: A</text>
    
    <rect x="250" y="0" width="120" height="60" fill="lightblue" stroke="black" />
    <text x="310" y="35" text-anchor="middle">Node 2</text>
    <text x="310" y="55" text-anchor="middle" font-size="12">Data: B</text>
    
    <rect x="500" y="0" width="120" height="60" fill="lightblue" stroke="black" />
    <text x="560" y="35" text-anchor="middle">Node 3</text>
    <text x="560" y="55" text-anchor="middle" font-size="12">Data: C</text>
    
    <!-- Forward Links -->
    <line x1="120" y1="30" x2="250" y2="30" stroke="black" stroke-width="2" marker-end="url(#arrowhead)" />
    <line x1="370" y1="30" x2="500" y2="30" stroke="black" stroke-width="2" marker-end="url(#arrowhead)" />
    
    <!-- Backward Links -->
    <line x1="250" y1="50" x2="120" y2="50" stroke="black" stroke-width="2" marker-end="url(#arrowhead)" />
    <line x1="500" y1="50" x2="370" y2="50" stroke="black" stroke-width="2" marker-end="url(#arrowhead)" />
    
    <text x="60" y="-10" text-anchor="middle" font-weight="bold">Head</text>
    <text x="560" y="-10" text-anchor="middle" font-weight="bold">Tail</text>
  </g>
  
  <!-- Insertion Process -->
  <g transform="translate(50,200)">
    <rect x="0" y="0" width="120" height="60" fill="lightblue" stroke="black" />
    <text x="60" y="35" text-anchor="middle">Node 1</text>
    <text x="60" y="55" text-anchor="middle" font-size="12">Data: A</text>
    
    <rect x="250" y="0" width="120" height="60" fill="lightgreen" stroke="black" />
    <text x="310" y="35" text-anchor="middle">New Node</text>
    <text x="310" y="55" text-anchor="middle" font-size="12">Data: X</text>
    
    <rect x="500" y="0" width="120" height="60" fill="lightblue" stroke="black" />
    <text x="560" y="35" text-anchor="middle">Node 2</text>
    <text x="560" y="55" text-anchor="middle" font-size="12">Data: B</text>
    
    <!-- Forward Links -->
    <line x1="120" y1="30" x2="250" y2="30" stroke="black" stroke-width="2" marker-end="url(#arrowhead)" />
    <line x1="370" y1="30" x2="500" y2="30" stroke="black" stroke-width="2" marker-end="url(#arrowhead)" />
    
    <!-- Backward Links -->
    <line x1="250" y1="50" x2="120" y2="50" stroke="black" stroke-width="2" marker-end="url(#arrowhead)" />
    <line x1="500" y1="50" x2="370" y2="50" stroke="black" stroke-width="2" marker-end="url(#arrowhead)" />
    
    <text x="185" y="20" text-anchor="middle" fill="red" font-weight="bold">1. Update next</text>
    <text x="435" y="70" text-anchor="middle" fill="red" font-weight="bold">2. Update prev</text>
  </g>
  
  <!-- Adding to Tail Process -->
  <g transform="translate(50,350)">
    <rect x="0" y="0" width="120" height="60" fill="lightblue" stroke="black" />
    <text x="60" y="35" text-anchor="middle">Node 1</text>
    <text x="60" y="55" text-anchor="middle" font-size="12">Data: A</text>
    
    <rect x="250" y="0" width="120" height="60" fill="lightblue" stroke="black" />
    <text x="310" y="35" text-anchor="middle">Node 2</text>
    <text x="310" y="55" text-anchor="middle" font-size="12">Data: B</text>
    
    <rect x="500" y="0" width="120" height="60" fill="lightblue" stroke="black" />
    <text x="560" y="35" text-anchor="middle">Node 3</text>
    <text x="560" y="55" text-anchor="middle" font-size="12">Data: C</text>
    
    <rect x="650" y="100" width="120" height="60" fill="lightgreen" stroke="black" />
    <text x="710" y="135" text-anchor="middle">New Tail</text>
    <text x="710" y="155" text-anchor="middle" font-size="12">Data: D</text>
    
    <!-- Existing Forward Links -->
    <line x1="120" y1="30" x2="250" y2="30" stroke="black" stroke-width="2" marker-end="url(#arrowhead)" />
    <line x1="370" y1="30" x2="500" y2="30" stroke="black" stroke-width="2" marker-end="url(#arrowhead)" />
    
    <!-- Existing Backward Links -->
    <line x1="250" y1="50" x2="120" y2="50" stroke="black" stroke-width="2" marker-end="url(#arrowhead)" />
    <line x1="500" y1="50" x2="370" y2="50" stroke="black" stroke-width="2" marker-end="url(#arrowhead)" />
    
    <!-- New Forward Link -->
    <line x1="620" y1="30" x2="680" y2="100" stroke="red" stroke-width="2" marker-end="url(#arrowhead)" />
    
    <!-- New Backward Link -->
    <line x1="680" y1="130" x2="620" y2="60" stroke="red" stroke-width="2" marker-end="url(#arrowhead)" />
    
    <text x="60" y="-10" text-anchor="middle" font-weight="bold">Head</text>
    <text x="560" y="-10" text-anchor="middle" font-weight="bold">Old Tail</text>
    <text x="710" y="90" text-anchor="middle" font-weight="bold" fill="red">New Tail</text>
    
    <text x="650" y="20" text-anchor="middle" fill="red" font-weight="bold">1. Update next</text>
    <text x="650" y="180" text-anchor="middle" fill="red" font-weight="bold">2. Update prev</text>
  </g>
  
  <!-- Arrowhead definition -->
  <defs>
    <marker id="arrowhead" markerWidth="10" markerHeight="7" refX="0" refY="3.5" orient="auto">
      <polygon points="0 0, 10 3.5, 0 7" />
    </marker>
  </defs>
</svg>
